#N canvas 275 113 902 627 10;
#X obj 57 17 bng 15 250 50 0 empty empty empty 17 7 0 10 -262144 -1
-1;
#X obj 73 177 bng 15 250 50 0 empty empty empty 17 7 0 10 -262144 -1
-1;
#X obj 208 178 bng 15 250 50 0 empty empty empty 17 7 0 10 -262144
-1 -1;
#X obj 341 182 bng 15 250 50 0 empty empty empty 17 7 0 10 -262144
-1 -1;
#X obj 59 85 sel 0 1 2 3;
#X floatatom 86 58 5 0 0 0 - - -;
#X text 748 424 reverb;
#N canvas 164 156 913 477 eq 0;
#X obj 148 145 hip~;
#X obj 260 90 hsl 128 15 0 2000 0 0 empty empty empty -2 -8 0 10 -262144
-1 -1 2300 1;
#X obj 9 78 hsl 128 15 0 2000 0 0 empty empty empty -2 -8 0 10 -262144
-1 -1 1500 1;
#X floatatom 103 111 5 0 0 0 - - -;
#X floatatom 254 118 5 0 0 0 - - -;
#X obj 873 165 hip~;
#X obj 924 166 lop~;
#X obj 889 215 dac~;
#X obj 966 102 hsl 128 15 0 127 0 0 empty empty empty -2 -8 0 10 -262144
-1 -1 0 1;
#X obj 734 98 hsl 128 15 0 127 0 0 empty empty empty -2 -8 0 10 -262144
-1 -1 0 1;
#X obj 876 29 tabplay~ leftchannel;
#X obj 970 56 tabplay~ rightchannel;
#X obj 874 136 *~;
#X obj 924 135 *~;
#X floatatom 828 131 5 0 0 0 - - -;
#X floatatom 960 130 5 0 0 0 - - -;
#X obj 1260 163 hip~;
#X obj 1311 164 lop~;
#X obj 1276 213 dac~;
#X obj 1353 100 hsl 128 15 0 127 0 0 empty empty empty -2 -8 0 10 -262144
-1 -1 0 1;
#X obj 1121 96 hsl 128 15 0 127 0 0 empty empty empty -2 -8 0 10 -262144
-1 -1 0 1;
#X obj 1263 27 tabplay~ leftchannel;
#X obj 1357 54 tabplay~ rightchannel;
#X obj 1261 134 *~;
#X obj 1311 133 *~;
#X floatatom 1215 129 5 0 0 0 - - -;
#X floatatom 1347 128 5 0 0 0 - - -;
#X obj 151 9 inlet~;
#X obj 149 116 *~ 0.5;
#X obj 164 209 outlet~;
#X obj 199 115 *~ 5;
#X obj 196 153 lop~;
#X connect 0 0 30 0;
#X connect 1 0 4 0;
#X connect 2 0 3 0;
#X connect 3 0 0 1;
#X connect 4 0 31 1;
#X connect 5 0 7 0;
#X connect 6 0 7 1;
#X connect 8 0 15 0;
#X connect 9 0 14 0;
#X connect 10 0 12 0;
#X connect 11 0 13 1;
#X connect 12 0 5 0;
#X connect 13 0 6 0;
#X connect 14 0 5 0;
#X connect 15 0 6 1;
#X connect 16 0 18 0;
#X connect 17 0 18 1;
#X connect 19 0 26 0;
#X connect 20 0 25 0;
#X connect 21 0 23 0;
#X connect 22 0 24 1;
#X connect 23 0 16 0;
#X connect 24 0 17 0;
#X connect 25 0 16 0;
#X connect 26 0 17 1;
#X connect 27 0 28 0;
#X connect 28 0 0 0;
#X connect 30 0 31 0;
#X connect 31 0 29 0;
#X restore 75 495 pd eq;
#N canvas 125 243 1173 643 reverb 0;
#X obj 113 193 hsl 128 15 0 127 0 0 empty empty empty -2 -8 0 10 -262144
-1 -1 0 1;
#X text 117 214 amount of reverb;
#X floatatom 108 146 5 0 0 0 - - -;
#X obj 31 308 dac~;
#X obj 30 74 *~;
#X obj 59 73 *~;
#X obj 38 39 tabplay~ left channel;
#X obj 37 17 bng 15 250 50 0 empty empty empty 17 7 0 10 -262144 -1
-1;
#X obj 113 255 delwrite~ delayleft;
#X obj 392 176 hsl 128 15 0 127 0 0 empty empty empty -2 -8 0 10 -262144
-1 -1 0 1;
#X text 396 197 amount of reverb;
#X floatatom 387 129 5 0 0 0 - - -;
#X obj 325 306 dac~;
#X obj 323 65 *~;
#X obj 352 64 *~;
#X obj 331 30 tabplay~ left channel;
#X obj 330 8 bng 15 250 50 0 empty empty empty 17 7 0 10 -262144 -1
-1;
#X obj 392 238 delwrite~ delayleft;
#X obj 672 179 hsl 128 15 0 127 0 0 empty empty empty -2 -8 0 10 -262144
-1 -1 0 1;
#X text 676 200 amount of reverb;
#X floatatom 667 132 5 0 0 0 - - -;
#X obj 618 304 dac~;
#X obj 606 99 freeverb~;
#X obj 608 68 *~;
#X obj 637 67 *~;
#X obj 616 33 tabplay~ left channel;
#X obj 615 11 bng 15 250 50 0 empty empty empty 17 7 0 10 -262144 -1
-1;
#X obj 672 241 delwrite~ delayleft;
#X obj 321 96 freeverb~;
#X obj 113 280 delwrite~ delayright;
#X obj 392 263 delwrite~ delayright;
#X obj 670 263 delwrite~ delayright;
#X obj 27 118 freeverb~;
#X connect 2 0 0 0;
#X connect 6 0 4 0;
#X connect 6 0 5 0;
#X connect 7 0 6 0;
#X connect 11 0 9 0;
#X connect 15 0 13 0;
#X connect 15 0 14 0;
#X connect 16 0 15 0;
#X connect 20 0 18 0;
#X connect 25 0 23 0;
#X connect 25 0 24 0;
#X connect 26 0 25 0;
#X restore 731 405 pd reverb;
#X text -7 499 eq filtering;
#X obj 780 232 bng 15 250 50 0 empty empty empty 17 7 0 10 -262144
-1 -1;
#X obj 780 252 openpanel;
#X msg 778 281 open \$1;
#X obj 778 303 readsf~;
#X obj 777 332 dac~;
#X msg 717 275 1;
#N canvas 133 203 1147 537 autoload 0;
#X obj 51 263 soundfiler;
#N canvas 0 22 450 300 (subpatch) 0;
#X array sound1 215446 float 2;
#X coords 0 1 215446 -1 200 140 1 0 0;
#X restore 50 376 graph;
#X obj -3 179 print;
#X obj 51 51 loadbang;
#X obj 51 81 bng 15 250 50 0 empty empty empty 17 7 0 10 -262144 -1
-1;
#X obj 472 263 soundfiler;
#N canvas 0 22 450 300 (subpatch) 0;
#X array sound2 239426 float 2;
#X coords 0 1 239426 -1 200 140 1 0 0;
#X restore 471 376 graph;
#X obj 418 179 print;
#X obj 472 51 loadbang;
#X obj 472 81 bng 15 250 50 0 empty empty empty 17 7 0 10 -262144 -1
-1;
#X obj 857 261 soundfiler;
#N canvas 0 22 450 300 (subpatch) 0;
#X array sound3 221510 float 2;
#X coords 0 1 221510 -1 200 140 1 0 0;
#X restore 856 374 graph;
#X obj 803 177 print;
#X obj 857 49 loadbang;
#X obj 857 79 bng 15 250 50 0 empty empty empty 17 7 0 10 -262144 -1
-1;
#X msg 51 165 read -resize \$1 sound1;
#X msg 472 165 read -resize \$1 sound2;
#X msg 857 163 read -resize \$1 sound3;
#X msg 51 116 open guitarchord1.wav;
#X msg 472 116 open guitarchord2.wav;
#X msg 857 114 open guitarchord3.wav;
#X connect 3 0 4 0;
#X connect 4 0 18 0;
#X connect 8 0 9 0;
#X connect 9 0 19 0;
#X connect 13 0 14 0;
#X connect 14 0 20 0;
#X connect 15 0 2 0;
#X connect 15 0 0 0;
#X connect 16 0 7 0;
#X connect 16 0 5 0;
#X connect 17 0 12 0;
#X connect 17 0 10 0;
#X connect 18 0 15 0;
#X connect 19 0 16 0;
#X connect 20 0 17 0;
#X restore 221 5 pd autoload;
#X obj 341 208 tabplay~ sound3;
#X obj 208 209 tabplay~ sound2;
#X obj 73 210 tabplay~ sound1;
#X obj 15 48 random 4;
#X obj 425 113 bng 15 250 50 0 empty empty empty 17 7 0 10 -262144
-1 -1;
#X obj 415 42 tgl 15 0 empty empty empty 17 7 0 10 -262144 -1 -1 1
1;
#X obj 125 407 *~;
#X floatatom 218 389 5 0 0 0 - - -;
#X obj 125 429 clip~ 0 0.5;
#X obj 221 351 hsl 128 15 0 10 0 0 empty empty empty -2 -8 0 10 -262144
-1 -1 12700 1;
#X obj 494 315 verb;
#X obj 577 552 dac~;
#X obj 422 81 metro 1000;
#X obj 73 333 *~;
#X obj 125 335 *~;
#X obj 88 255 tgl 15 0 empty empty empty 17 7 0 10 -262144 -1 -1 1
1;
#X obj 140 274 - 1;
#X obj 140 295 abs;
#X obj 140 316 tgl 15 0 empty empty empty 17 7 0 10 -262144 -1 -1 0
1;
#X text 60 239 ////////////////;
#X text 58 354 ////////////////;
#X connect 0 0 20 0;
#X connect 1 0 19 0;
#X connect 2 0 18 0;
#X connect 3 0 17 0;
#X connect 4 1 1 0;
#X connect 4 2 2 0;
#X connect 4 3 3 0;
#X connect 7 0 27 0;
#X connect 10 0 11 0;
#X connect 11 0 12 0;
#X connect 12 0 13 0;
#X connect 13 0 14 0;
#X connect 13 0 14 1;
#X connect 15 0 13 0;
#X connect 17 0 30 0;
#X connect 17 0 31 0;
#X connect 18 0 30 0;
#X connect 18 0 31 0;
#X connect 19 0 30 0;
#X connect 19 0 31 0;
#X connect 20 0 4 0;
#X connect 21 0 20 0;
#X connect 22 0 29 0;
#X connect 23 0 25 0;
#X connect 24 0 23 1;
#X connect 25 0 7 0;
#X connect 26 0 24 0;
#X connect 27 0 28 0;
#X connect 27 1 28 1;
#X connect 29 0 21 0;
#X connect 30 0 7 0;
#X connect 31 0 23 0;
#X connect 32 0 30 1;
#X connect 32 0 33 0;
#X connect 33 0 34 0;
#X connect 34 0 35 0;
#X connect 35 0 31 1;
